<svg width="100%" height="100%" id="svg" viewBox="0 0 1440 400" xmlns="http://www.w3.org/2000/svg" class="transition duration-300 ease-in-out delay-150"><path d="M 0,400 C 0,400 0,200 0,200 C 18.681483856091965,230.84733907197707 37.36296771218393,261.69467814395415 70,252 C 102.63703228781607,242.30532185604585 149.22961300735625,192.06862649616056 179,194 C 208.77038699264375,195.93137350383944 221.718580258391,250.0308158714035 249,255 C 276.281419741609,259.9691841285965 317.89606595907986,215.80811001822553 345,197 C 372.10393404092014,178.19188998177447 384.69715590528983,184.73674405569437 411,178 C 437.30284409471017,171.26325594430563 477.315310419761,151.24491375899692 509,162 C 540.684689580239,172.75508624100308 564.041602415666,214.28360090831796 592,246 C 619.958397584334,277.71639909168204 652.5182799175749,299.6206826077313 677,273 C 701.4817200824251,246.37931739226872 717.8852779140345,171.233668660757 746,163 C 774.1147220859655,154.766331339243 813.9406084262868,213.44464274924073 845,227 C 876.0593915737132,240.55535725075927 898.3522883808182,208.98776034228 929,201 C 959.6477116191818,193.01223965772 998.6502380504396,208.60431588163925 1025,196 C 1051.3497619495604,183.39568411836075 1065.0467594174238,142.59497613116295 1091,159 C 1116.9532405825762,175.40502386883705 1155.1627242798656,249.01577959370888 1184,256 C 1212.8372757201344,262.9842204062911 1232.302343463113,203.34190549400148 1261,202 C 1289.697656536887,200.65809450599852 1327.6279018676819,257.61659843028525 1359,267 C 1390.3720981323181,276.38340156971475 1415.186049066159,238.19170078485737 1440,200 C 1440,200 1440,400 1440,400 Z" stroke="none" stroke-width="0" fill="#223a89ff" class="transition-all duration-300 ease-in-out delay-150 path-0" transform="rotate(-180 720 200)"></path></svg>