<svg width="100%" height="100%" id="svg" viewBox="0 0 1440 400" xmlns="http://www.w3.org/2000/svg" class="transition duration-300 ease-in-out delay-150"><path d="M 0,400 C 0,400 0,200 0,200 C 34.41461530580489,190.9058730775185 68.82923061160977,181.811746155037 93,169 C 117.17076938839023,156.188253844963 131.09769285936576,139.65888845737055 154,141 C 176.90230714063424,142.34111154262945 208.7799979509271,161.55270001548078 246,169 C 283.2200020490729,176.44729998451922 325.78231533692593,172.13031148070624 351,179 C 376.21768466307407,185.86968851929376 384.0907407013692,203.92605406169423 410,217 C 435.9092592986308,230.07394593830577 479.8547218575974,238.16547227251678 516,215 C 552.1452781424026,191.83452772748322 580.4903718682413,137.41205684823868 603,152 C 625.5096281317587,166.58794315176132 642.1837906694376,250.18630033452854 670,264 C 697.8162093305624,277.81369966547146 736.7744654540085,221.84274181364705 767,212 C 797.2255345459915,202.15725818635295 818.7183475145288,238.4427324108833 845,230 C 871.2816524854712,221.5572675891167 902.3521444878764,168.38632854281968 934,148 C 965.6478555121236,127.61367145718033 997.8730745339665,140.0119534178381 1027,138 C 1056.1269254660335,135.9880465821619 1082.1555573762578,119.56585778582794 1104,136 C 1125.8444426237422,152.43414221417206 1143.5046959610029,201.7246154388502 1172,198 C 1200.4953040389971,194.2753845611498 1239.82565877973,137.53568045877108 1273,127 C 1306.17434122027,116.4643195412289 1333.192668920077,152.1326627260654 1360,172 C 1386.807331079923,191.8673372739346 1413.4036655399614,195.9336686369673 1440,200 C 1440,200 1440,400 1440,400 Z" stroke="none" stroke-width="0" fill="#223a89ff" class="transition-all duration-300 ease-in-out delay-150 path-0"></path></svg>