<svg width="127" height="147" viewBox="0 0 127 147" fill="none" xmlns="http://www.w3.org/2000/svg">
<path d="M106.676 106.449L75 138.125L43.3242 106.449C19.584 107.479 0.625 126.902 0.625 150.875V154.062C0.625 162.861 7.76367 170 16.5625 170H133.438C142.236 170 149.375 162.861 149.375 154.062V150.875C149.375 126.902 130.416 107.479 106.676 106.449ZM5.14062 26.4961L7.26562 26.9941V46.3848C4.94141 47.7793 3.28125 50.2031 3.28125 53.125C3.28125 55.9141 4.80859 58.2383 6.9668 59.666L1.78711 80.3516C1.22266 82.6426 2.48438 85 4.31055 85H18.1895C20.0156 85 21.2773 82.6426 20.7129 80.3516L15.5332 59.666C17.6914 58.2383 19.2188 55.9141 19.2188 53.125C19.2188 50.2031 17.5586 47.7793 15.2344 46.3848V28.9199L37.1484 34.1992C34.293 39.9102 32.5 46.2852 32.5 53.125C32.5 76.5996 51.5254 95.625 75 95.625C98.4746 95.625 117.5 76.5996 117.5 53.125C117.5 46.2852 115.74 39.9102 112.852 34.1992L144.826 26.4961C150.869 25.0352 150.869 17.498 144.826 16.0371L81.6074 0.763672C77.291 -0.265625 72.7422 -0.265625 68.4258 0.763672L5.14062 16.0039C-0.869141 17.4648 -0.869141 25.0352 5.14062 26.4961Z" fill="#374151"/>
</svg>
