<svg width="500" height="400" viewBox="0 0 500 400" fill="none" xmlns="http://www.w3.org/2000/svg">
<path d="M217.891 399.609L170.234 385.781C165.234 384.375 162.422 379.141 163.828 374.141L270.469 6.79688C271.875 1.79689 277.109 -1.01561 282.109 0.390635L329.766 14.2188C334.766 15.625 337.578 20.8594 336.172 25.8594L229.531 393.203C228.047 398.203 222.891 401.094 217.891 399.609ZM128.828 311.953L162.812 275.703C166.406 271.875 166.172 265.781 162.188 262.266L91.4063 200L162.188 137.734C166.172 134.219 166.484 128.125 162.812 124.297L128.828 88.0469C125.312 84.2969 119.375 84.0625 115.547 87.6562L2.96875 193.125C-1.01563 196.797 -1.01563 203.125 2.96875 206.797L115.547 312.344C119.375 315.937 125.312 315.781 128.828 311.953ZM384.453 312.422L497.031 206.875C501.016 203.203 501.016 196.875 497.031 193.203L384.453 87.5781C380.703 84.0625 374.766 84.2187 371.172 87.9687L337.188 124.219C333.594 128.047 333.828 134.141 337.812 137.656L408.594 200L337.812 262.266C333.828 265.781 333.516 271.875 337.188 275.703L371.172 311.953C374.688 315.781 380.625 315.937 384.453 312.422Z" fill="#374151"/>
</svg>
