<svg width="168" height="143" viewBox="0 0 168 143" fill="none" xmlns="http://www.w3.org/2000/svg">
<path d="M163.359 57.2187C161.25 56.5156 159.141 55.8516 157.031 55.2266C157.383 53.7812 157.695 52.3359 158.008 50.8906C162.812 27.6094 159.648 8.89843 148.984 2.72656C138.711 -3.17188 121.953 2.96094 105 17.7266C103.32 19.1719 101.68 20.6953 100.117 22.2187C99.0625 21.2031 97.9688 20.1875 96.875 19.2109C79.1016 3.42969 61.2891 -3.21094 50.625 3C40.3906 8.9375 37.3438 26.5547 41.6406 48.5859C42.0703 50.7734 42.5391 52.9219 43.0859 55.1094C40.5859 55.8125 38.125 56.5937 35.8203 57.4141C14.9609 64.6406 0 76.0469 0 87.8437C0 100.031 15.9375 112.258 37.6172 119.68C39.375 120.266 41.1328 120.852 42.9297 121.359C42.3438 123.703 41.8359 126.008 41.3672 128.391C37.2656 150.07 40.4688 167.258 50.7031 173.156C61.25 179.25 78.9844 173 96.25 157.883C97.6172 156.672 98.9844 155.422 100.352 154.094C102.07 155.773 103.867 157.375 105.664 158.937C122.383 173.312 138.906 179.133 149.102 173.234C159.648 167.141 163.086 148.664 158.633 126.164C158.281 124.445 157.891 122.687 157.461 120.891C158.711 120.539 159.922 120.148 161.133 119.758C183.672 112.297 200 100.227 200 87.8437C200 76.0078 184.609 64.5234 163.359 57.2187ZM110.508 24.0547C125.039 11.3984 138.594 6.4375 144.766 9.99218C151.367 13.7812 153.906 29.0937 149.766 49.2109C149.492 50.5391 149.219 51.8281 148.867 53.1172C140.195 51.1641 131.406 49.7578 122.578 48.9766C117.5 41.7109 111.953 34.7578 105.938 28.2344C107.461 26.7891 108.945 25.4219 110.508 24.0547ZM65.3125 108.117C67.3047 111.516 69.3359 114.914 71.4844 118.234C65.3906 117.57 59.3359 116.594 53.3594 115.305C55.0781 109.68 57.2266 103.859 59.7266 97.9219C61.5234 101.359 63.3594 104.758 65.3125 108.117ZM53.4766 61.125C59.1016 59.875 65.0781 58.8594 71.2891 58.0781C69.2188 61.3203 67.1875 64.6406 65.2734 68C63.3594 71.3203 61.4844 74.7187 59.7266 78.1562C57.2656 72.3359 55.1953 66.6328 53.4766 61.125ZM64.1797 88.0391C66.7578 82.6484 69.5703 77.375 72.5391 72.1797C75.5078 66.9844 78.7109 61.9453 82.0703 56.9844C87.9297 56.5547 93.9062 56.3203 100 56.3203C106.094 56.3203 112.109 56.5547 117.93 56.9844C121.25 61.9062 124.414 66.9453 127.422 72.1016C130.43 77.2578 133.242 82.5312 135.898 87.8828C133.281 93.2734 130.469 98.5859 127.461 103.82C124.492 109.016 121.328 114.055 118.008 119.055C112.188 119.484 106.133 119.68 100 119.68C93.8672 119.68 87.9297 119.484 82.1875 119.133C78.7891 114.172 75.5859 109.094 72.5781 103.898C69.5703 98.7031 66.7969 93.4297 64.1797 88.0391ZM134.727 108.039C136.719 104.602 138.594 101.125 140.43 97.6094C142.93 103.273 145.117 109.016 147.031 114.914C140.977 116.281 134.844 117.336 128.672 118.039C130.781 114.758 132.773 111.398 134.727 108.039ZM140.352 78.1562C138.516 74.7187 136.641 71.2812 134.688 67.9219C132.773 64.6016 130.781 61.3203 128.711 58.0781C135 58.8594 141.016 59.9141 146.641 61.2031C144.844 66.9844 142.734 72.6094 140.352 78.1562ZM100.078 34.2109C104.18 38.6641 108.047 43.3516 111.641 48.1953C103.906 47.8437 96.1328 47.8437 88.3984 48.1953C92.2266 43.1562 96.1719 38.4687 100.078 34.2109ZM54.7656 10.2656C61.3281 6.4375 75.8984 11.9062 91.25 25.5C92.2266 26.3594 93.2031 27.2969 94.2188 28.2344C88.1641 34.7578 82.5781 41.7109 77.4609 48.9766C68.6328 49.7578 59.8828 51.125 51.2109 53.0391C50.7031 51.0469 50.2734 49.0156 49.8438 46.9844C46.1719 28.0781 48.5938 13.8203 54.7656 10.2656ZM45.1953 113.234C43.5547 112.766 41.9531 112.258 40.3516 111.711C32.0312 109.094 22.5781 104.953 15.7422 99.5234C11.7969 96.789 9.14062 92.5703 8.39844 87.8437C8.39844 80.6953 20.7422 71.5547 38.5547 65.3437C40.7812 64.5625 43.0469 63.8594 45.3125 63.1953C47.9688 71.6719 51.1719 79.9922 54.8828 88.0391C51.1328 96.2031 47.8906 104.641 45.1953 113.234ZM90.7422 151.516C84.2969 157.414 76.8359 162.102 68.7109 165.305C64.375 167.375 59.375 167.57 54.9219 165.812C48.7109 162.219 46.1328 148.43 49.6484 129.875C50.0781 127.687 50.5469 125.5 51.0938 123.352C59.8438 125.227 68.6719 126.516 77.6172 127.18C82.7734 134.484 88.4375 141.477 94.4922 148.039C93.2422 149.25 91.9922 150.422 90.7422 151.516ZM100.312 142.023C96.3281 137.727 92.3438 132.961 88.4766 127.844C92.2266 128 96.0938 128.078 100 128.078C104.023 128.078 107.969 128 111.875 127.805C108.281 132.766 104.414 137.492 100.312 142.023ZM151.367 153.742C151.016 158.508 148.672 162.961 144.922 165.969C138.711 169.562 125.469 164.875 111.172 152.609C109.531 151.203 107.891 149.68 106.211 148.117C112.188 141.516 117.695 134.523 122.695 127.18C131.641 126.437 140.547 125.07 149.336 123.078C149.727 124.68 150.078 126.281 150.391 127.844C152.305 136.281 152.617 145.07 151.367 153.742ZM158.477 111.75C157.383 112.102 156.289 112.453 155.156 112.766C152.422 104.25 149.062 95.9297 145.195 87.8437C148.945 79.875 152.109 71.6719 154.766 63.2734C156.797 63.8594 158.75 64.4844 160.625 65.1094C178.828 71.3594 191.602 80.6562 191.602 87.7656C191.602 95.4219 177.969 105.305 158.477 111.75ZM100 105.891C109.883 105.891 117.891 97.8828 117.891 88C117.891 78.1172 109.883 70.1094 100 70.1094C90.1172 70.1094 82.1094 78.1172 82.1094 88C82.1094 97.8828 90.1172 105.891 100 105.891Z" fill="#374151"/>
</svg>
